<svg role="img" aria-labelledby="su-logo-title" version="1.1" id="Layer_1" xmlns="http://www.w3.org/2000/svg" xmlns:xlink="http://www.w3.org/1999/xlink" x="0px" y="0px" width="105.2px" height="79.8px" viewBox="0 0 105.2 79.8" style="enable-background:new 0 0 105.2 79.8;" xml:space="preserve">
<title id="su-logo-title">Students' Union Manchester Logo</title>
<style type="text/css">
	.st0{fill-rule:evenodd;clip-rule:evenodd;fill:#B5292A;}
	.st1{opacity:0.2;fill-rule:evenodd;clip-rule:evenodd;fill:#181714;}
	.st2{fill-rule:evenodd;clip-rule:evenodd;fill:#FFFFFF;}
</style>
<path d="M7.9,19.6c0,1.1,0,2.1,0,3.1s0,2,0,2.9s0,1.8,0,2.7c0,0.9,0,1.7,0,2.5s0,1.7,0,2.5s0,1.6,0,2.5s0,1.7,0,2.5
	c0,0.9,0,1.8,0,2.7s0,1.9,0,2.9s0,2,0,3.1s0.2,2,0.6,2.5c0.4,0.6,1,0.9,1.8,0.8c0.8,0,1.4-0.3,1.8-0.9c0.4-0.6,0.6-1.4,0.6-2.5
	s0-2.1,0-3.1s0-1.9,0-2.8c0-0.9,0-1.8,0-2.7s0-1.7,0-2.5s0-1.6,0-2.5c0-0.8,0-1.6,0-2.5c0-0.8,0-1.7,0-2.5c0-0.9,0-1.7,0-2.7
	c0-0.9,0-1.9,0-2.8c0-1,0-2,0-3.1c1,0,1.9,0.1,2.7,0.1s1.6,0.1,2.4,0.1c0.8,0,1.7,0.1,2.7,0.1c0,1.1,0,2.1,0,3.1s0,1.9,0,2.8
	s0,1.8,0,2.6c0,0.9,0,1.7,0,2.5s0,1.6,0,2.4c0,0.8,0,1.6,0,2.4c0,0.8,0,1.6,0,2.5s0,1.7,0,2.6s0,1.8,0,2.8s0,2,0,3.1s-0.1,2-0.3,3
	c-0.2,0.9-0.5,1.8-0.9,2.5c-0.4,0.8-0.9,1.5-1.5,2.1s-1.3,1.1-2,1.6c-0.8,0.4-1.6,0.8-2.5,1c-0.9,0.3-1.9,0.4-3,0.5s-2.1,0-3.1-0.2
	c-0.9-0.2-1.8-0.4-2.5-0.8c-0.8-0.4-1.4-0.9-2-1.4c-0.6-0.6-1.1-1.3-1.5-2c-0.4-0.8-0.7-1.6-0.9-2.6S0,48.5,0,47.4s0-2.2,0-3.2
	s0-2,0-3s0-1.9,0-2.8c0-0.9,0-1.8,0-2.6s0-1.7,0-2.6c0-0.8,0-1.7,0-2.6s0-1.7,0-2.6s0-1.8,0-2.8s0-1.9,0-3c0-1,0-2.1,0-3.2
	c1,0,1.9,0.1,2.7,0.1s1.6,0.1,2.4,0.1S6.8,19.5,7.9,19.6z M24.1,20.3c1.1,0,2,0.1,2.9,0.1s1.7,0.1,2.5,0.1c0.9,0,1.8,0.1,2.9,0.1
	c0.3,1,0.6,1.8,0.8,2.7c0.3,0.8,0.5,1.6,0.7,2.3c0.2,0.7,0.5,1.5,0.7,2.2s0.5,1.4,0.7,2.2c0.2,0.7,0.5,1.5,0.7,2.3
	c0.3,0.8,0.5,1.7,0.8,2.6c0.2,0.8,0.4,1.6,0.7,2.4c0.2,0.8,0.5,1.6,0.6,2.4c0.1,0,0.1,0,0.1,0c0-0.8-0.1-1.6-0.1-2.4
	c0-0.8,0-1.6,0-2.4c0-0.8,0-1.6,0-2.4c0-1.2,0-2.2,0-3.1s0-1.8,0-2.7c0-0.9,0-1.8,0-2.7c0-0.9,0-2,0-3.1c0.9,0,1.7,0.1,2.4,0.1
	s1.4,0.1,2.1,0.1c0.7,0,1.5,0.1,2.4,0.1c0,1.1,0,2.2,0,3.3c0,1,0,2.1,0,3c0,1,0,1.9,0,2.8s0,1.8,0,2.7c0,0.9,0,1.8,0,2.6
	s0,1.7,0,2.6c0,0.9,0,1.7,0,2.6s0,1.7,0,2.6c0,0.9,0,1.8,0,2.7s0,1.9,0,2.8c0,1,0,2,0,3s0,2.1,0,3.3c-1,0-1.8,0.1-2.6,0.1
	s-1.5,0.1-2.3,0.1s-1.6,0.1-2.6,0.1c-0.3-1-0.7-2-1-2.9s-0.6-1.7-0.9-2.6c-0.3-0.8-0.5-1.6-0.8-2.4S34.3,46,34,45.2
	c-0.3-0.8-0.6-1.7-0.9-2.6c-0.3-0.9-0.6-1.9-1-3c-0.3-0.9-0.6-1.8-0.8-2.7c-0.2-0.9-0.5-1.7-0.7-2.6c-0.1,0-0.1,0-0.1,0
	c0,0.7,0,1.5,0.1,2.3c0,0.8,0,1.5,0.1,2.3c0,0.8,0,1.6,0,2.4c0,1.2,0,2.2,0,3.2s0,1.9,0,2.8c0,0.9,0,1.7,0,2.6c0,0.9,0,1.8,0,2.8
	s0,2,0,3.2C30,56,29.2,56,28.5,56s-1.4,0.1-2.1,0.1s-1.5,0.1-2.4,0.1c0-1.1,0-2.2,0-3.2s0-2,0-3s0-1.9,0-2.8c0-0.9,0-1.8,0-2.7
	s0-1.7,0-2.6c0-0.8,0-1.7,0-2.5s0-1.7,0-2.5s0-1.7,0-2.5s0-1.7,0-2.6s0-1.8,0-2.7s0-1.8,0-2.8s0-2,0-3
	C24.1,22.5,24.1,21.4,24.1,20.3z M48.9,55.1c0-1.1,0-2.2,0-3.2s0-2,0-3s0-1.9,0-2.8c0-0.9,0-1.8,0-2.7s0-1.7,0-2.6
	c0-0.9,0-1.7,0-2.5s0-1.7,0-2.5c0-0.9,0-1.7,0-2.6s0-1.8,0-2.7s0-1.9,0-2.8c0-1,0-2,0-3s0-2.1,0-3.2c1,0,1.9,0.1,2.7,0.1
	s1.6,0.1,2.4,0.1c0.8,0,1.7,0.1,2.7,0.1c0,1.1,0,2.2,0,3.2s0,2,0,2.9s0,1.9,0,2.8s0,1.8,0,2.6c0,0.9,0,1.7,0,2.5s0,1.7,0,2.5
	s0,1.7,0,2.5s0,1.7,0,2.5c0,0.9,0,1.7,0,2.6c0,0.9,0,1.8,0,2.8c0,0.9,0,1.9,0,2.9s0,2.1,0,3.2c-1,0-1.9,0.1-2.7,0.1S52.4,55,51.6,55
	C50.8,55,49.9,55.1,48.9,55.1z M59.6,44.6c0-1,0-1.9,0-2.8c0-0.9,0-1.7,0-2.4c0-0.8,0-1.5,0-2.3s0-1.6,0-2.4c0-0.9,0-1.8,0-2.8
	c0-1.2,0.1-2.2,0.3-3.2s0.6-1.9,1-2.6c0.4-0.8,1-1.5,1.6-2c0.6-0.6,1.3-1.1,2.2-1.4c0.8-0.4,1.7-0.6,2.7-0.8c1-0.2,2-0.2,3.2-0.2
	c1.1,0.1,2.2,0.2,3.2,0.5c1,0.2,1.9,0.6,2.7,1c0.8,0.4,1.5,1,2.2,1.6s1.2,1.3,1.6,2.1s0.8,1.6,1,2.6c0.2,0.9,0.3,1.9,0.3,3
	c0,1,0,1.8,0,2.6s0,1.6,0,2.3s0,1.4,0,2.2s0,1.5,0,2.3s0,1.7,0,2.6c0,1.1-0.1,2.1-0.3,3c-0.2,0.9-0.6,1.8-1,2.6s-1,1.5-1.6,2.1
	s-1.3,1.1-2.2,1.6c-0.8,0.4-1.7,0.8-2.7,1s-2,0.4-3.2,0.5c-1.1,0.1-2.2,0-3.2-0.2s-1.9-0.4-2.7-0.8c-0.8-0.4-1.5-0.9-2.2-1.4
	c-0.6-0.6-1.2-1.3-1.6-2c-0.4-0.8-0.8-1.7-1-2.6C59.7,46.9,59.6,45.8,59.6,44.6z M73.3,45.4c0-1.1,0-2.2,0-3.1c0-1,0-1.8,0-2.7
	s0-1.7,0-2.6c0-0.9,0-1.8,0-2.7c0-1,0-2,0-3.1c0-1.2-0.3-2.2-0.7-2.8c-0.5-0.6-1.2-1-2.1-1s-1.6,0.3-2.1,0.9s-0.7,1.6-0.7,2.8
	c0,1.2,0,2.2,0,3.2s0,1.9,0,2.8c0,0.9,0,1.7,0,2.6c0,0.9,0,1.8,0,2.8s0,2,0,3.2s0.3,2.2,0.7,2.8c0.5,0.6,1.2,0.9,2.1,0.9
	s1.6-0.4,2.1-1C73.1,47.5,73.3,46.6,73.3,45.4z M84.3,23c1.1,0,2,0.1,2.9,0.1s1.7,0.1,2.5,0.1c0.9,0,1.8,0.1,2.9,0.1
	c0.4,1,0.7,1.9,1,2.7s0.6,1.6,0.9,2.3c0.3,0.7,0.5,1.5,0.8,2.2s0.6,1.5,0.9,2.3c0.3,0.8,0.6,1.7,1,2.6c0.2,0.7,0.4,1.4,0.7,2.1
	c0.2,0.7,0.5,1.4,0.6,2c0.1,0,0.1,0,0.1,0c0-0.7-0.1-1.3-0.1-2s0-1.3,0-2s0-1.3,0-2c0-1,0-1.9,0-2.7c0-0.8,0-1.5,0-2.3
	c0-0.7,0-1.5,0-2.3s0-1.7,0-2.7c0.9,0,1.7,0.1,2.4,0.1c0.7,0,1.4,0.1,2.1,0.1s1.5,0.1,2.4,0.1c0,1.1,0,2.2,0,3.3c0,1,0,2,0,3
	s0,1.9,0,2.8s0,1.8,0,2.7s0,1.7,0,2.6s0,1.7,0,2.6c0,0.9,0,1.8,0,2.7s0,1.8,0,2.8s0,2,0,3s0,2.1,0,3.3c-1,0-1.8,0.1-2.6,0.1
	c-0.8,0-1.5,0.1-2.3,0.1s-1.6,0.1-2.6,0.1c-0.4-1.1-0.8-2-1.1-2.9c-0.4-0.9-0.7-1.7-1-2.5s-0.6-1.6-0.9-2.4c-0.3-0.8-0.6-1.7-1-2.6
	c-0.4-0.9-0.7-1.9-1.1-3c-0.3-0.8-0.6-1.6-0.8-2.3c-0.2-0.7-0.5-1.5-0.7-2.2c-0.1,0-0.1,0-0.1,0c0,1,0.1,1.9,0.1,2.9s0.1,2,0.1,3
	s0,1.9,0,2.7s0,1.6,0,2.3s0,1.5,0,2.2s0,1.5,0,2.3s0,1.7,0,2.7c-0.9,0-1.7,0.1-2.4,0.1c-0.7,0-1.4,0.1-2.1,0.1s-1.5,0.1-2.4,0.1
	c0-1.1,0-2.2,0-3.2s0-2,0-2.9s0-1.9,0-2.8c0-0.9,0-1.8,0-2.6c0-0.9,0-1.7,0-2.5s0-1.7,0-2.5s0-1.7,0-2.5c0-0.9,0-1.7,0-2.6
	s0-1.8,0-2.8c0-0.9,0-1.9,0-2.9C84.3,25.2,84.3,24.1,84.3,23z M50.2,62.2v4.4c0,1,0.6,1.7,1.6,1.7c1.1,0,1.6-0.7,1.6-1.7v-4.4h1.3
	v4.4c0,1.7-1.1,2.8-3,2.8s-3-1.1-3-2.8v-4.4C48.7,62.2,50.2,62.2,50.2,62.2z M55.8,64H57v1c0.4-0.8,0.9-1.1,1.7-1.1
	c1.1,0,1.7,0.7,1.7,2.1v3.2h-1.3v-3.1c0-0.8-0.3-1.2-1-1.2s-1.2,0.6-1.2,1.6v2.8h-1.2L55.8,64L55.8,64z M61.4,63.1h1.3v-0.9h-1.3
	V63.1z M83.3,63h1.3v-0.9h-1.3V63z M61.4,69.2h1.2V64h-1.2V69.2z M63.3,64h1.3l1,3.3c0.1,0.3,0.1,0.5,0.2,0.8l0,0
	c0-0.2,0.1-0.5,0.2-0.8l1-3.3h1.3l-1.9,5.2H65L63.3,64z M77.2,63.9C77.3,63.9,77.3,63.9,77.2,63.9l0.1,1.2h-0.2
	c-0.5,0-0.8,0.1-1.1,0.4c-0.4,0.4-0.5,1-0.5,1.6v2.2h-1.2V64h1.2v1.3C75.8,64.4,76.4,63.9,77.2,63.9z M83.3,69.2h1.2V64h-1.2V69.2z
	 M85.3,64h0.9v-1.6l1.2-0.3V64h1.3l-0.2,0.9h-1.1v2.5c0,0.6,0.2,0.8,0.8,0.8c0.2,0,0.3,0,0.5-0.1v1.1c-0.3,0.1-0.5,0.1-0.9,0.1
	c-1.2,0-1.7-0.7-1.7-1.7v-2.7h-0.9L85.3,64L85.3,64z M89.5,71v-1c0.2,0,0.3,0,0.5,0c0.6,0,0.9,0,1.1-0.6l0.1-0.3l-2-5.2h1.4l1.1,3.4
	c0.1,0.2,0.1,0.4,0.2,0.6l0,0c0-0.2,0.1-0.3,0.2-0.6l1-3.4h1.3l-2,5.5C91.9,70.8,91.2,71,90,71C89.9,71,89.7,71,89.5,71z M96.3,66.6
	c0-1.7,1.1-2.7,2.5-2.7s2.5,1,2.5,2.7c0,1.7-1.1,2.7-2.5,2.7S96.3,68.3,96.3,66.6z M100.1,66.6c0-1.2-0.5-1.8-1.3-1.8
	s-1.3,0.6-1.3,1.8s0.5,1.8,1.3,1.8S100.1,67.8,100.1,66.6z M105,64.9h-1.1v4.3h-1.2v-4.3h-0.9V64h0.9v-0.1c0-1.1,0.7-1.7,1.8-1.7
	c0.3,0,0.5,0,0.7,0.1v1c-0.2,0-0.4-0.1-0.5-0.1c-0.5,0-0.7,0.3-0.7,0.8l0,0h1.3L105,64.9z M80.8,66.1L79.9,66
	c-0.6-0.1-0.8-0.3-0.8-0.6c0-0.4,0.3-0.6,0.9-0.6s1,0.2,1.2,0.6l1-0.2l0,0c-0.3-0.8-1.1-1.3-2.2-1.3c-1.3,0-2.1,0.6-2.1,1.6
	c0,0.8,0.5,1.4,1.6,1.6l0.8,0.1c0.6,0.1,0.8,0.2,0.8,0.7c0,0.4-0.3,0.6-1,0.6s-1.1-0.3-1.4-0.8l-1,0.2c0.3,1,1.2,1.5,2.4,1.5
	c1.4,0,2.1-0.6,2.1-1.6C82.3,66.8,81.9,66.3,80.8,66.1z M48.9,72.6h1.9l1.7,4.8c0.1,0.4,0.2,0.5,0.2,0.8l0,0c0-0.3,0.1-0.4,0.2-0.8
	l1.7-4.8h1.9v7h-1.2v-5.4c0-0.3,0-0.6,0-0.8l0,0c0,0.2-0.1,0.6-0.2,0.8l-1.7,5.4H52l-1.8-5.4C50.1,74,50,73.6,50,73.4l0,0
	c0,0.2,0,0.5,0,0.8v5.4h-1.2v-7H48.9z M57.4,78.2c0-0.5,0.2-0.9,0.6-1.2c0.4-0.2,0.9-0.4,1.7-0.5l1.1-0.1v-0.1c0-0.8-0.3-1.1-1-1.1
	c-0.6,0-1,0.3-1,0.9h-1.3c0.1-1.1,1-1.8,2.3-1.8c1.5,0,2.2,0.7,2.2,2.2V78c0,0.7,0.1,1.2,0.2,1.6H61c0-0.3-0.1-0.6-0.1-0.9
	c-0.2,0.6-0.9,1-1.7,1C58.1,79.8,57.4,79.1,57.4,78.2z M60.9,77.5v-0.3l-1.2,0.2c-0.7,0.1-1,0.4-1,0.8s0.3,0.7,0.9,0.7
	C60.3,78.9,60.9,78.3,60.9,77.5z M63.3,74.4h1.2v1c0.4-0.8,0.9-1.1,1.7-1.1c1.1,0,1.7,0.7,1.7,2.1v3.2h-1.3v-3.1
	c0-0.8-0.3-1.2-1-1.2s-1.2,0.6-1.2,1.6v2.8h-1.2v-5.3H63.3z M68.9,77c0-1.7,1-2.7,2.6-2.7c1.3,0,2.1,0.7,2.3,1.9l-1.2,0.2
	c-0.1-0.7-0.5-1.1-1.1-1.1c-0.8,0-1.2,0.6-1.2,1.7s0.5,1.8,1.3,1.8c0.6,0,1-0.4,1.1-1.1l1.2,0.2c-0.2,1.2-1.1,1.9-2.3,1.9
	C69.9,79.8,68.9,78.7,68.9,77z M74.6,72.9l1.2-0.3v2.8c0.3-0.7,0.9-1.1,1.7-1.1c1.1,0,1.7,0.7,1.7,2.1v3.2H78v-3.1
	c0-0.8-0.3-1.2-1-1.2s-1.2,0.6-1.2,1.6v2.8h-1.2C74.6,79.7,74.6,72.9,74.6,72.9z M90.6,74.4h0.9v-1.6l1.2-0.3v1.8H94l-0.2,0.9h-1.1
	v2.5c0,0.6,0.2,0.8,0.8,0.8c0.2,0,0.3,0,0.5-0.1v1.1c-0.3,0.1-0.5,0.1-0.9,0.1c-1.2,0-1.7-0.7-1.7-1.7v-2.7h-0.9L90.6,74.4
	L90.6,74.4z M103.2,74.3C103.3,74.3,103.3,74.3,103.2,74.3l0.1,1.2h-0.2c-0.5,0-0.8,0.1-1.1,0.4c-0.4,0.4-0.5,1-0.5,1.6v2.2h-1.2
	v-5.2h1.2v1.3C101.8,74.9,102.4,74.3,103.2,74.3z M88.6,76.6l-0.9-0.1c-0.6-0.1-0.8-0.3-0.8-0.6c0-0.4,0.3-0.6,0.9-0.6
	s1,0.2,1.2,0.6l1-0.2l0,0c-0.3-0.8-1.1-1.3-2.2-1.3c-1.3,0-2.1,0.6-2.1,1.6c0,0.8,0.5,1.4,1.6,1.6l0.8,0.1c0.6,0.1,0.8,0.2,0.8,0.7
	c0,0.4-0.3,0.6-1,0.6s-1.1-0.3-1.4-0.8l-1,0.2c0.3,1,1.2,1.5,2.4,1.5c1.4,0,2.1-0.6,2.1-1.6C90.1,77.2,89.7,76.7,88.6,76.6z
	 M83.9,78c-0.3,0.5-0.7,0.7-1.2,0.7c-0.8,0-1.4-0.6-1.4-1.4H85v-0.6c0-1.6-0.9-2.5-2.4-2.5c-1.6,0-2.5,1.1-2.5,2.8
	c0,1.7,1,2.7,2.5,2.7c1.2,0,1.9-0.6,2.3-1.5L83.9,78z M82.6,75.1c0.7,0,1.2,0.4,1.2,1.3v0.1h-2.4C81.4,75.7,81.8,75.1,82.6,75.1z
	 M98.3,78c-0.3,0.5-0.7,0.7-1.2,0.7c-0.8,0-1.4-0.6-1.4-1.4h3.7v-0.6c0-1.6-0.9-2.5-2.4-2.5c-1.6,0-2.5,1.1-2.5,2.8
	c0,1.7,1,2.7,2.5,2.7c1.2,0,1.9-0.6,2.3-1.5L98.3,78z M97,75.1c0.7,0,1.2,0.4,1.2,1.3v0.1h-2.4C95.7,75.7,96.2,75.1,97,75.1z
	 M72.3,67.6c-0.3,0.5-0.7,0.7-1.2,0.7c-0.8,0-1.4-0.6-1.4-1.4h3.7v-0.6c0-1.6-0.9-2.5-2.4-2.5c-1.6,0-2.5,1.1-2.5,2.8
	c0,1.7,1,2.7,2.5,2.7c1.2,0,1.9-0.6,2.3-1.5L72.3,67.6z M71,64.7c0.7,0,1.2,0.4,1.2,1.3v0.1h-2.4C69.8,65.2,70.2,64.7,71,64.7z
	 M0,11.3v0.6c0,0.6,0.2,1.2,0.5,1.7s0.9,0.9,1.5,1.2c0.7,0.3,1.5,0.5,2.3,0.5c0.1,0,0.2,0,0.3,0c1.2,0,2.2-0.3,2.9-0.8
	s1.1-1.3,1.1-2.1v-1.1c0-0.7-0.1-1.2-0.4-1.6C8,9.2,7.5,8.8,6.7,8.4C5.8,8,5.3,7.8,4.4,7.3c-0.5-0.2-0.8-0.6-0.8-1V5.8
	C3.6,5.3,3.9,5,4.4,5C4.7,5,4.9,5.1,5,5.2C5.2,5.4,5.3,5.6,5.3,6v0.9h3.5V6c0-0.8-0.2-1.4-0.6-1.9c-0.3-0.5-0.9-0.8-1.5-1
	C6,2.9,5.3,2.8,4.4,2.8c-1.2,0-2.2,0.3-3,0.8C0.6,4.2,0.1,5,0.1,6v0.6c0,0.7,0.1,1.2,0.4,1.6c0.3,0.5,0.8,0.9,1.6,1.2
	c0.9,0.5,1.4,0.7,2.3,1.1c0.7,0.4,0.9,0.7,0.9,1.2v0.5c0,0.2,0,0.4-0.2,0.6C5,12.9,4.7,13,4.5,13c-0.6,0-0.9-0.4-0.9-1.1v-0.6
	L0,11.3z M9.3,5.5l3.1-0.1v9.9l4,0.1V5.3l3.1-0.1V2.6L9.3,3V5.5z M26.8,12.2c0,0.4-0.1,0.7-0.3,0.8c-0.2,0.2-0.4,0.3-0.8,0.3l0,0
	c-0.7,0-1.1-0.4-1.1-1.2V2.4l-4,0.1v9.7c0,0.8,0.2,1.4,0.6,2s1,1,1.7,1.3c0.8,0.3,1.7,0.5,2.8,0.5c0.1,0,0.3,0,0.4,0
	c0.9,0,1.7-0.1,2.4-0.4c0.8-0.3,1.3-0.7,1.7-1.3c0.4-0.6,0.6-1.3,0.6-2.1v-10l-4,0.1L26.8,12.2z M40.5,2.4c-0.8-0.3-1.9-0.5-3-0.4
	l-4.8,0.2V16l4.8,0.2c0.1,0,0.3,0,0.4,0c1,0,1.9-0.2,2.7-0.5c0.8-0.3,1.5-0.9,1.9-1.6c0.4-0.7,0.6-1.6,0.6-2.7V6.6
	c0-1-0.2-1.9-0.7-2.6C42,3.3,41.4,2.8,40.5,2.4z M39,11.6c0,0.7-0.1,1.2-0.4,1.6c-0.3,0.4-0.7,0.6-1.2,0.6h-0.7V4.5h0.7
	c0.6,0,1,0.1,1.2,0.5C38.9,5.2,39,5.7,39,6.4V11.6z M48.8,10.2h3.8V7.5h-3.8V4.3l4.1-0.1V1.4l-8.1,0.3v14.7l8.3,0.3v-2.8l-4.3-0.1
	C48.8,13.8,48.8,10.2,48.8,10.2z M61.5,6.5c0,0.5,0,1.1,0,1.6c0,0.4,0,0.9,0,1.3c-0.1-0.3-0.2-0.6-0.3-0.9c-0.1-0.3-0.2-0.6-0.3-1
	c-0.3-0.8-0.5-1.5-0.8-2.2c-0.2-0.6-0.4-1.2-0.7-1.9l-0.1-0.2c-0.2-0.6-0.4-1.3-0.7-2V1.1l-4.2,0.1v15.4l3.5,0.1v-6.4
	c0-0.5,0-1.1,0-1.5V8.3c0-0.2,0-0.4,0-0.6c0.2,0.6,0.4,1.3,0.6,2c0.3,0.9,0.6,1.7,0.9,2.5c0.3,0.7,0.5,1.4,0.8,2.2
	c0.3,0.7,0.5,1.5,0.9,2.5l0,0l3.8,0.1V1l-3.5,0.1L61.5,6.5z M66.3,4.3l3.1-0.1v13.1l4,0.1V4.1L76.5,4V0.6L66.3,1V4.3z M87.3,5.7V4.9
	V4.6c0-1.1-0.2-2.1-0.6-2.8s-1-1.1-1.8-1.4C84.2,0.1,83.3,0,82.3,0c-0.9,0-1.7,0.2-2.4,0.5c-0.8,0.3-1.4,0.8-1.8,1.5
	c-0.5,0.7-0.7,1.5-0.7,2.5v0.9c0,1,0.2,1.7,0.5,2.4c0.4,0.7,0.9,1.2,1.8,1.8c0.5,0.3,0.9,0.6,1.3,0.8s0.8,0.5,1.3,0.8
	c0.9,0.6,1,1,1,1.8v0.8c0,0.4-0.1,0.8-0.3,1C82.8,15,82.6,15,82.3,15c-0.6,0-1-0.5-1-1.5v-1.1l-4-0.1v1c0,0.9,0.2,1.6,0.6,2.3
	c0.4,0.7,1,1.3,1.7,1.7c0.8,0.4,1.7,0.7,2.7,0.7c0.1,0,0.2,0,0.3,0c0.9,0,1.8-0.2,2.5-0.5s1.3-0.8,1.7-1.5c0.4-0.6,0.6-1.4,0.6-2.2
	v-1.6c0-1-0.2-1.7-0.5-2.3c-0.4-0.7-1-1.3-1.9-1.8c-0.5-0.3-0.9-0.6-1.3-0.8c-0.4-0.2-0.8-0.5-1.3-0.8c-0.6-0.4-1-1-1-1.6V4.2
	c0-0.6,0.3-1.1,1-1.1c0.3,0,0.5,0.1,0.7,0.2c0.2,0.2,0.4,0.6,0.4,1.2v1.2H87.3z M92.6,0l-4,0.1l0.8,5.2l2.4-0.1L92.6,0z M83.3,63
	h1.3v-0.9h-1.3V63z M83.3,69.2h1.2V64h-1.2V69.2z"></path>
<!--<g>
	<path class="st0" d="M59.5,24.6c0,0,0.2-3.7,1.9-6.5c2.7-4.5,8.3-7.3,13.8-5.5c7.9,2.6,9.7,7.7,11.3,14.9c0.3,1.5,1.1,5.4,1.1,5.4
		l-2.6,0.4c0,0-1.1-5.3-4.4-7.5C77.3,23.5,59.5,24.6,59.5,24.6z"/>
	<path class="st1" d="M79.4,21.1c1.6-0.3,0-4.2,0-4.2s3.3,4.8,4.3,7.5c1.1,2.7,1.3,5.1,2.2,6.2c0.8,1.1,1.7,1.4,1.7,1.4l0,0l0.1,0.7
		l-2.6,0.4c0,0-1-5.2-4.3-7.4C78.3,23.3,73,21.2,79.4,21.1z"/>
	<path class="st1" d="M82.5,23.5c-0.6-1.3-2-4.2-2-4.2s0.3,0.8,0.7,1.8c0.4,1,0.6,3.1,0.6,3.1s0.1,1.3,0.4,2.9l0,0
		c0.6,0.7,1.1,1.5,1.5,2.3C83.5,27.9,83.4,25.5,82.5,23.5z"/>
	<ellipse class="st2" cx="86.3" cy="34.1" rx="2.4" ry="2.3"/>
	<path class="st1" d="M87.7,32.3c0.6,0.4,0.9,1.1,0.9,1.9c0,1.3-1.1,2.3-2.4,2.3c-1.1,0-2-0.7-2.3-1.7c0.4,0.3,0.9,0.5,1.4,0.5
		c1.3,0,2.4-1,2.4-2.3C87.8,32.6,87.7,32.4,87.7,32.3z"/>
	<path class="st2" d="M58.6,24.1c0,0,0.2,4.6,0.4,5.1c0.2,0.5,0.5,1.3,1.9,0.5c4.4-2.4,10.8-3.9,15.6-1.7c2.5,1.1,4.4,2.5,5,2.4
		c0.6-0.2,1.6-2.6,1.4-3.8C81.1,17.1,58.8,20.1,58.6,24.1z"/>
	<path class="st1" d="M58.9,28.2c2,0.8,6-2.6,8.4-3.2c6.5-1.6,10.2,1.8,12.8,2.7c1,0.4,2-0.1,2.8-0.7c0,1.3-0.9,3.2-1.4,3.4
		c-0.6,0.2-2.5-1.2-5-2.4c-4.8-2.2-11.2-0.8-15.6,1.7c-1.4,0.8-1.7-0.1-1.9-0.5C58.9,29.1,58.9,28.7,58.9,28.2z"/>
	<path class="st1" d="M80.8,29.2c-1.3-0.1-4.3-2.1-7.7-2.6c-3.4-0.5-8.2,0.6-9.4,1.3c-1,0.7-3.2,1.9-4.6,1.7
		c0.2,0.4,0.7,0.7,1.7,0.1c4.4-2.4,10.8-3.9,15.6-1.7c2.5,1.1,4.4,2.5,5,2.4c0.4-0.1,0.8-1,1.1-1.9C82.6,28.5,82.1,29.3,80.8,29.2z"
		/>
</g>-->
</svg>